<svg id="Calque_1" data-name="Calque 1" xmlns="http://www.w3.org/2000/svg" viewBox="0 0 59.34 54.24"><defs><style>.cls-1,.cls-2{fill:#62ebca;}.cls-1{stroke:#62ebca;stroke-linecap:round;stroke-linejoin:round;stroke-width:4px;}</style></defs><path class="cls-1" d="M7191.28,7217.27a21.21,21.21,0,0,1-2.2-40c0-.16-.05-.31-.06-.47-.15-1.25-.28-2.51-.34-3.77-10.07,3.29-16.85,12.73-16.85,23.91,0,12.06,8,22.17,19.54,24.55Z" transform="translate(-7169.83 -7169.29)"/><polygon class="cls-2" points="16.52 0 27.85 3.22 19.99 12.31 16.52 0"/><path class="cls-1" d="M7209.46,7216a21.21,21.21,0,0,0-1.29-40c0-.16,0-.32,0-.48,0-1.25.06-2.52,0-3.78,10.33,2.4,17.9,11.22,18.88,22.35,1.05,12-6,22.79-17.33,26.17C7209.65,7218.87,7209.55,7217.45,7209.46,7216Z" transform="translate(-7169.83 -7169.29)"/><polygon class="cls-2" points="39.57 42.33 33.72 52.91 45.45 53.65 39.57 42.33"/></svg>