<?xml version="1.0" encoding="UTF-8"?><svg id="Calque_1" xmlns="http://www.w3.org/2000/svg" viewBox="0 0 564.92 208.2"><defs><style>.cls-1,.cls-2{fill:#62ebca;}.cls-3{stroke:#9097e1;stroke-width:7px;}.cls-3,.cls-2{stroke-linecap:round;stroke-linejoin:round;}.cls-3,.cls-4{fill:#9097e1;}.cls-2{stroke:#62ebca;stroke-width:4px;}</style></defs><g id="Calque_1-2"><path class="cls-3" d="M72.17,153.89L17.37,107.19v46.7h-7.9V66.19h7.9v38l47.5-38h11.9L26.77,105.71l57.2,48.18h-11.8Z"/><path class="cls-3" d="M158.68,153.89l-51-40.34v40.34h-7.89V66.19h40.18c18,0,30.85,8.44,30.85,24.92s-12.28,24.85-30.31,24.85h-18.36l48.95,38-12.42-.07Zm-51-45.19h32.86c12.93,0,22.18-5.37,22.18-17.61s-9.25-17.68-22.18-17.68h-32.86v35.29Z"/><path class="cls-3" d="M224.37,114l-39.61-47.81h9.62l34,40.49,33.93-40.49h9.66l-39.59,47.83v39.85h-8v-39.87Z"/><path class="cls-3" d="M321.97,154.77c-14.54,.08-29.28-3.9-39.6-10.48l4.29-6.18c10,6.12,23.25,9.59,35.61,9.45,15.15-.19,25.88-6.15,25.89-16.6,0-9.41-6.51-12.93-21.86-16.56l-12.33-2.89c-18-4.19-27.44-10.92-27.54-23.47-.12-13.9,13.68-22.53,33.07-22.73,11.89-.1,23.56,3.14,33.7,9.35l-4.1,6.19c-8.64-5.51-18.69-8.4-28.94-8.33-15.09,.27-25.5,5.73-25.38,15.72,.11,8.62,7.19,12.91,21.54,16.28l12.76,3c18.49,4.28,27.05,10.56,27.15,23.39,.12,14.61-14.13,23.8-34.31,23.9l.05-.04Z"/><path class="cls-3" d="M403.86,73.44h-33.42v-7.27h74.65v7.27h-33.36v80.45h-7.87V73.44Z"/><path class="cls-1" d="M207.97,36.27h0c-.82-.09-5-.73-10.48-5.61-11.67-10.15-29.03-10.19-40.75-.1-5.09,4.22-10.5,6.38-15.48,6.5-5-.12-10.18-2.28-15.28-6.5-11.31-10.03-28.34-10.03-39.65,0-5.11,4.22-10.25,6.38-15.29,6.5-5-.12-10.37-2.28-15.48-6.5-11.72-10.09-29.08-10.05-40.75,.1-5.48,4.88-9.66,5.52-10.48,5.61h0C1.82,36.39-.11,38.52,0,41.02c.11,2.34,1.98,4.21,4.32,4.32h.07c1,0,8-.41,16.43-7.9,4.8-4.27,17-9.75,29,.11,6.79,5.62,14.23,8.47,21.25,8.6,7.06-.13,14.27-3,21.06-8.6,7.91-7.37,20.19-7.37,28.1,0,6.79,5.62,14,8.47,21.06,8.6,7-.13,14.47-3,21.25-8.6,11.92-9.86,24.16-4.38,29-.11,8.42,7.49,15.44,7.88,16.43,7.9h0c2.5-.12,4.44-2.24,4.32-4.75-.11-2.34-1.98-4.21-4.32-4.32Z"/><path class="cls-1" d="M207.97,13.24h0c-.82-.09-5-.73-10.48-5.6-11.67-10.15-29.03-10.2-40.75-.1-5.09,4.21-10.5,6.37-15.48,6.49-5-.12-10.18-2.28-15.28-6.49-11.31-10.04-28.34-10.04-39.65,0-5.11,4.21-10.25,6.37-15.29,6.49-5-.12-10.37-2.28-15.48-6.49-11.72-10.1-29.08-10.05-40.75,.1-5.48,4.87-9.66,5.51-10.48,5.6h0C1.82,13.36-.11,15.49,0,17.99c.11,2.34,1.98,4.21,4.32,4.32h.07c1,0,8-.4,16.43-7.9,4.8-4.27,17-9.75,29,.12,6.79,5.62,14.23,8.47,21.25,8.6,7.06-.13,14.27-3,21.06-8.6,7.91-7.38,20.19-7.38,28.1,0,6.79,5.62,14,8.47,21.06,8.6,7-.13,14.47-3,21.25-8.6,11.92-9.87,24.16-4.39,29-.12,8.42,7.5,15.44,7.89,16.43,7.9h0c2.5-.12,4.44-2.24,4.32-4.75-.11-2.34-1.98-4.21-4.32-4.32Z"/><path class="cls-2" d="M494.23,150c-17.26-4.47-29.26-20.09-29.26-38.81,0-17.33,10.07-31.93,25.06-37.69l-.12-.9c-.28-2.4-.52-4.81-.63-7.21-19.31,6.25-32.31,24.34-32.31,45.8,0,23.1,15.32,42.46,37.42,47-.04-2.74-.09-5.47-.16-8.19Z"/><polygon class="cls-1" points="484.79 58.11 506.49 64.27 491.43 81.69 484.79 58.11"/><path class="cls-2" d="M529.05,147.62c16.84-6,27.42-22.56,25.79-41.25-1.51-17.26-12.81-30.93-28.25-35.36v-.91c.07-2.41,.1-4.84,0-7.24,19.77,4.59,34.28,21.48,36.14,42.81,2,23-11.56,43.63-33.18,50.1l-.5-8.15Z"/><polygon class="cls-1" points="528.93 139.18 517.73 159.43 540.19 160.85 528.93 139.18"/><path class="cls-4" d="M15.18,195.08c1.48,.05,2.94-.34,4.21-1.11,.9-.52,1.46-1,2.11-1,1.37,.23,2.39,1.37,2.49,2.75,0,1-.86,1.93-2.23,2.75-2.11,1.2-4.5,1.81-6.92,1.76-7.65,0-13.37-5.37-13.37-14.52s5.68-14.35,13.32-14.35c2.44-.05,4.86,.54,7,1.71,1.37,.78,2.23,1.77,2.23,2.71-.09,1.45-1.19,2.63-2.62,2.84-.65,0-1.2-.48-2.06-1-1.3-.76-2.79-1.15-4.3-1.12-4.17,0-7.52,2.84-7.52,9.11s3.36,9.47,7.66,9.47Z"/><path class="cls-4" d="M33.27,197.66c0,1.55-.94,2.32-2.88,2.32s-2.88-.77-2.88-2.32v-24.75c0-1.54,1-2.32,2.88-2.32s2.88,.78,2.88,2.32v24.75Z"/><path class="cls-4" d="M54.89,196.55c0,1-.69,1.54-1.51,2.06-1.87,1.06-3.99,1.58-6.14,1.5-6.4,0-10-3.69-10-10s3.56-10.22,9.32-10.22,8.85,3.91,8.85,8.46c0,3-1.46,3.35-3.26,3.35h-9.38c.47,2.41,1.93,3.7,4.6,3.7,1.23-.01,2.44-.32,3.52-.9,.51-.32,1.08-.51,1.68-.56,1.34,.13,2.35,1.27,2.32,2.61Zm-12.16-8.56h7.24c0-2.06-1.08-3.69-3.48-3.69-2.17,0-3.42,1.29-3.76,3.69Z"/><path class="cls-4" d="M66.36,184.73c-1.23,.03-2.45,.32-3.56,.86-.56,.32-1.17,.53-1.81,.6-1.33,0-2.19-1.59-2.19-2.71,0-.81,.47-1.41,1.55-2,2.02-1.02,4.27-1.52,6.53-1.46,3.09,0,5.37,.78,6.66,2.28,.99,1.4,1.46,3.1,1.33,4.81v10.53c0,1.63-.77,2.36-2.79,2.36-1.72,0-2.41-.51-2.41-1.76v-.34c-1.37,1.47-3.33,2.24-5.33,2.1-3.95,0-6.36-2.15-6.36-5.58,0-3.87,3.1-6.06,11.35-6.79v-.3c0-1.66-.73-2.6-2.97-2.6Zm-2.53,9.15c0,1,.64,1.76,2.27,1.76,1.18,0,2.33-.43,3.23-1.2v-3.48c-3.7,.47-5.5,1.23-5.5,2.92h0Z"/><path class="cls-4" d="M85.23,182.41v.47c1.16-1.8,3.09-2.79,5.8-2.79,2.45,0,4.38,.81,5.54,2.66,.88,1.49,1.3,3.21,1.2,4.94v10c0,1.55-.94,2.32-2.87,2.32s-2.88-.77-2.88-2.32v-9c.05-.81-.14-1.62-.56-2.32-.6-.83-1.6-1.29-2.62-1.2-1.27-.03-2.48,.51-3.31,1.46v11.08c0,1.55-.95,2.32-2.88,2.32s-2.88-.77-2.88-2.32v-15.3c0-1.55,.9-2.32,2.79-2.32s2.71,.99,2.67,2.32Z"/><path class="cls-4" d="M107.62,196.59c-.29,2.33-.93,4.6-1.89,6.74-.61,1.38-1.25,2.37-3.1,2.37s-2.27-.86-2.27-1.89c.02-.5,.1-.99,.25-1.46l1.25-4.9c.34-1.38,.69-2.67,3.14-2.67,1.8,0,2.62,.78,2.62,1.81Z"/><path class="cls-4" d="M132.11,195.08c1.48,.04,2.94-.34,4.21-1.11,.9-.52,1.46-1,2.11-1,1.37,.23,2.39,1.37,2.49,2.75,0,1-.86,1.93-2.24,2.75-2.1,1.2-4.49,1.81-6.91,1.76-7.65,0-13.37-5.37-13.37-14.52s5.67-14.35,13.32-14.35c2.44-.05,4.86,.54,7,1.71,1.38,.78,2.24,1.77,2.24,2.71-.09,1.45-1.19,2.63-2.62,2.84-.65,0-1.21-.48-2.07-1-1.3-.76-2.78-1.15-4.29-1.12-4.17,0-7.52,2.84-7.52,9.11s3.35,9.47,7.65,9.47Z"/><path class="cls-4" d="M150.16,197.66c0,1.55-.95,2.32-2.88,2.32s-2.88-.77-2.88-2.32v-15.25c0-1.55,.9-2.32,2.79-2.32s2.71,1,2.67,2.32v.86c.86-1.96,2.8-3.22,4.94-3.22,1.63,0,2.36,.77,2.36,2.57,0,2-.9,2.58-2.62,2.67-2.36,.08-3.52,.56-4.38,1.89v10.48Z"/><path class="cls-4" d="M175.77,196.55c0,1-.69,1.54-1.5,2.06-1.87,1.06-4,1.58-6.15,1.5-6.4,0-10-3.69-10-10s3.57-10.22,9.32-10.22,8.86,3.91,8.86,8.46c0,3-1.47,3.35-3.27,3.35h-9.37c.26,2.29,2.31,3.94,4.6,3.7,1.23-.01,2.44-.32,3.52-.9,.51-.32,1.08-.51,1.68-.56,1.33,.14,2.34,1.27,2.31,2.61Zm-12.16-8.56h7.22c0-2.06-1.08-3.69-3.48-3.69-2.15,0-3.38,1.29-3.74,3.69h0Z"/><path class="cls-4" d="M187.25,184.73c-1.24,.03-2.46,.32-3.57,.86-.56,.32-1.17,.53-1.81,.6-1.33,0-2.19-1.59-2.19-2.71,0-.81,.48-1.41,1.55-2,2.02-1.02,4.27-1.52,6.53-1.46,3.09,0,5.37,.78,6.66,2.28,.99,1.4,1.46,3.1,1.33,4.81v10.53c0,1.63-.77,2.36-2.79,2.36-1.72,0-2.41-.51-2.41-1.76v-.34c-1.37,1.47-3.32,2.24-5.32,2.1-4,0-6.36-2.15-6.36-5.58,0-3.87,3.09-6.06,11.34-6.79v-.3c0-1.66-.73-2.6-2.96-2.6Zm-2.54,9.15c0,1,.64,1.76,2.28,1.76,1.18,0,2.32-.43,3.22-1.2v-3.48c-3.7,.47-5.5,1.23-5.5,2.92Z"/><path class="cls-4" d="M214.4,197.45c.02,.7-.37,1.36-1,1.67-1.31,.68-2.77,1.02-4.25,1-3.09,0-4.94-1.25-5.89-3-.76-1.68-1.09-3.53-.94-5.37v-6.46h-1.51c-1.54,0-2.32-.78-2.32-2.41s.78-2.4,2.32-2.4h1.51v-3.79c0-1.54,.94-2.32,2.88-2.32s2.87,.78,2.87,2.32v3.79h3.61c1.55,0,2.32,.77,2.32,2.4s-.77,2.41-2.32,2.41h-3.61v6.44c-.07,.89,.07,1.79,.39,2.62,.3,.59,.93,.93,1.59,.86,.45-.02,.9-.09,1.33-.21,.32-.1,.66-.16,1-.17,1.59,0,2.02,1.67,2.02,2.62Z"/><path class="cls-4" d="M234.17,196.55c0,1-.69,1.54-1.5,2.06-1.87,1.06-4,1.58-6.15,1.5-6.4,0-10-3.69-10-10s3.57-10.22,9.33-10.22,8.85,3.91,8.85,8.46c0,3-1.46,3.35-3.27,3.35h-9.37c.26,2.29,2.31,3.94,4.6,3.7,1.23-.02,2.44-.32,3.53-.9,.5-.32,1.08-.51,1.67-.56,1.33,.13,2.34,1.27,2.31,2.61Zm-12.2-8.56h7.22c0-2.06-1.07-3.69-3.48-3.69-2.11,0-3.35,1.29-3.74,3.69Z"/><path class="cls-4" d="M243.58,196.59c-.29,2.33-.93,4.6-1.89,6.74-.6,1.38-1.24,2.37-3.09,2.37s-2.28-.86-2.28-1.89c.02-.5,.11-.99,.26-1.46l1.25-4.9c.34-1.38,.68-2.67,3.13-2.67,1.81,0,2.62,.78,2.62,1.81Z"/><path class="cls-4" d="M275.97,198.44c0,1-.68,1.54-2.7,1.54-2.5,0-3.18-.81-4.34-2.58l-4.64-6.91c-.61,0-1.16,.08-1.77,.08-.49,0-.98-.02-1.46-.08v7.17c0,1.55-.9,2.32-2.79,2.32s-2.84-.77-2.84-2.32v-21.74c0-1.55,0-3.14,2.5-3.82,1.73-.39,3.5-.58,5.28-.56,7.26,0,11.65,3.31,11.65,9.15,.11,3.55-1.87,6.83-5.07,8.38l4.29,5.93c1.39,1.93,1.89,2.62,1.89,3.44Zm-13.27-12.64c4,0,6.23-1.76,6.23-4.72s-2.2-4.6-5.8-4.6c-.72,0-1.44,.08-2.15,.21v9c.57,.09,1.15,.12,1.73,.11h0Z"/><path class="cls-4" d="M295.45,196.55c0,1-.69,1.54-1.5,2.06-1.87,1.06-4,1.58-6.15,1.5-6.4,0-10-3.69-10-10s3.57-10.22,9.32-10.22,8.86,3.91,8.86,8.46c0,3-1.46,3.35-3.27,3.35h-9.37c.26,2.29,2.31,3.94,4.6,3.7,1.23-.01,2.44-.32,3.52-.9,.51-.32,1.08-.51,1.68-.56,1.33,.13,2.34,1.27,2.31,2.61Zm-12.16-8.56h7.22c0-2.06-1.08-3.69-3.48-3.69-2.15,0-3.4,1.29-3.74,3.69h0Z"/><path class="cls-4" d="M308.69,195.19c.89-.02,1.75-.26,2.53-.69,.43-.26,.92-.41,1.42-.43,1.4,.08,2.49,1.26,2.45,2.67-.03,.76-.45,1.44-1.12,1.8-1.65,1.06-3.58,1.6-5.54,1.55-5.46,0-9.54-4-9.54-10s4-10.06,9.62-10.06c1.89-.05,3.76,.44,5.38,1.42,.71,.37,1.17,1.09,1.2,1.89,.05,1.41-1.01,2.61-2.41,2.75-.51-.03-1-.19-1.42-.47-.79-.42-1.67-.65-2.57-.65-2.54,0-3.91,1.89-3.91,5s1.37,5.22,3.91,5.22Z"/><path class="cls-4" d="M336.27,181.94c-.09,1.18-.32,2.35-.68,3.48-1.55,5.71-5.42,14.73-10.1,20.45-1.33,1.63-2.19,2.32-3.27,2.32-1.57,.06-2.91-1.1-3.09-2.66,.12-.98,.63-1.86,1.42-2.45,1.25-1.21,2.35-2.55,3.31-4l-6.49-15.39c-.29-.56-.47-1.17-.52-1.8,0-.95,.65-1.76,2.75-1.76s2.8,.73,3.4,2.32l4.12,11.17c1.55-3.57,2.75-7.28,3.57-11.09,.3-1.28,.56-2.4,3-2.4,2.11-.04,2.58,.82,2.58,1.81Z"/><path class="cls-4" d="M348.35,195.19c.89-.02,1.76-.26,2.54-.69,.43-.26,.91-.41,1.41-.43,1.4,.08,2.49,1.26,2.45,2.67-.03,.75-.45,1.44-1.11,1.8-1.65,1.06-3.59,1.6-5.55,1.55-5.45,0-9.54-4-9.54-10s4-10.06,9.63-10.06c1.89-.05,3.75,.44,5.37,1.42,.71,.37,1.17,1.09,1.2,1.89,.05,1.41-1,2.61-2.4,2.75-.51-.02-1-.19-1.42-.47-.79-.42-1.68-.65-2.58-.65-2.53,0-3.91,1.89-3.91,5s1.38,5.22,3.91,5.22Z"/><path class="cls-4" d="M364.12,197.66c0,1.55-.94,2.32-2.88,2.32s-2.88-.77-2.88-2.32v-24.75c0-1.54,1-2.32,2.88-2.32s2.88,.78,2.88,2.32v24.75Z"/><path class="cls-4" d="M385.74,196.55c0,1-.69,1.54-1.51,2.06-1.87,1.06-3.99,1.58-6.14,1.5-6.4,0-10-3.69-10-10s3.56-10.22,9.32-10.22,8.85,3.91,8.85,8.46c0,3-1.46,3.35-3.26,3.35h-9.37c.47,2.41,1.93,3.7,4.6,3.7,1.23-.01,2.44-.32,3.52-.9,.51-.32,1.08-.51,1.68-.56,1.33,.14,2.34,1.27,2.31,2.61Zm-12.16-8.56h7.22c0-2.06-1.08-3.69-3.49-3.69-2.14,0-3.34,1.29-3.73,3.69h0Z"/><path class="cls-4" d="M395.15,196.59c-.29,2.33-.93,4.6-1.89,6.74-.6,1.38-1.25,2.37-3.1,2.37s-2.27-.86-2.27-1.89c.02-.5,.1-.99,.25-1.46l1.25-4.9c.34-1.38,.69-2.67,3.14-2.67,1.8,0,2.62,.78,2.62,1.81Z"/><path class="cls-4" d="M427.55,198.44c0,1-.69,1.54-2.71,1.54-2.49,0-3.18-.81-4.34-2.58l-4.64-6.91c-.6,0-1.16,.08-1.76,.08-.49,0-.98-.02-1.46-.08v7.17c0,1.55-.9,2.32-2.79,2.32s-2.88-.79-2.88-2.32v-21.74c0-1.55,0-3.14,2.49-3.82,1.74-.39,3.51-.58,5.29-.56,7.26,0,11.64,3.31,11.64,9.15,.11,3.55-1.87,6.83-5.07,8.38l4.3,5.93c1.41,1.93,1.93,2.62,1.93,3.44Zm-13.28-12.64c4,0,6.23-1.76,6.23-4.72s-2.19-4.6-5.8-4.6c-.72,0-1.44,.08-2.15,.21v9c.57,.08,1.14,.12,1.72,.11Z"/><path class="cls-4" d="M447.02,196.55c0,1-.69,1.54-1.51,2.06-1.87,1.06-3.99,1.58-6.14,1.5-6.4,0-10-3.69-10-10s3.56-10.22,9.32-10.22,8.85,3.91,8.85,8.46c0,3-1.46,3.35-3.26,3.35h-9.37c.47,2.41,1.93,3.7,4.6,3.7,1.23-.01,2.44-.32,3.52-.9,.51-.32,1.08-.51,1.68-.56,1.33,.14,2.34,1.27,2.31,2.61Zm-12.16-8.56h7.21c0-2.06-1.07-3.69-3.48-3.69-2.14,0-3.39,1.29-3.73,3.69Z"/><path class="cls-4" d="M458.49,184.73c-1.24,.03-2.46,.32-3.57,.86-.55,.32-1.17,.53-1.8,.6-1.33,0-2.19-1.59-2.19-2.71,0-.81,.47-1.41,1.54-2,2.03-1.02,4.27-1.52,6.54-1.46,3.09,0,5.37,.78,6.66,2.28,.97,1.4,1.43,3.09,1.3,4.79v10.53c0,1.63-.78,2.36-2.79,2.36-1.72,0-2.41-.51-2.41-1.76v-.34c-1.37,1.46-3.33,2.24-5.33,2.1-4,0-6.36-2.15-6.36-5.58,0-3.87,3.1-6.06,11.35-6.79v-.3c.03-1.64-.71-2.58-2.94-2.58Zm-2.52,9.15c0,1,.64,1.76,2.27,1.76,1.18,0,2.33-.43,3.23-1.2v-3.48c-3.71,.47-5.5,1.23-5.5,2.92Z"/><path class="cls-4" d="M477.66,205.78c0,1.55-1,2.32-2.88,2.32s-2.88-.77-2.88-2.32v-23.37c0-1.59,.94-2.32,2.83-2.32s2.54,.69,2.54,1.8v.3c1.23-1.42,3.06-2.19,4.94-2.06,4.73,0,8.47,3.52,8.47,9.71s-3.83,10.23-9.63,10.23c-1.17,.04-2.34-.21-3.39-.73v6.44Zm2.57-10.44c2.84,0,4.56-1.85,4.56-5.24s-1.76-5.41-4.43-5.41c-.98-.02-1.93,.3-2.7,.9v9.06c.77,.48,1.66,.72,2.57,.69Z"/><path class="cls-4" d="M511.35,196.55c0,1-.69,1.54-1.51,2.06-1.87,1.06-3.99,1.58-6.14,1.5-6.4,0-10-3.69-10-10s3.56-10.22,9.32-10.22,8.85,3.91,8.85,8.46c0,3-1.46,3.35-3.26,3.35h-9.37c.47,2.41,1.93,3.7,4.6,3.7,1.23-.01,2.44-.32,3.52-.9,.51-.32,1.08-.51,1.68-.56,1.33,.14,2.34,1.27,2.31,2.61Zm-12.16-8.56h7.21c0-2.06-1.07-3.69-3.48-3.69-2.14,0-3.39,1.29-3.73,3.69h0Z"/><path class="cls-4" d="M522.82,184.73c-1.23,.03-2.45,.32-3.56,.86-.56,.32-1.17,.52-1.81,.6-1.33,0-2.19-1.59-2.19-2.71,0-.81,.47-1.41,1.55-2,2.02-1.02,4.27-1.52,6.53-1.46,3.09,0,5.37,.78,6.66,2.28,.99,1.4,1.46,3.1,1.33,4.81v10.53c0,1.63-.77,2.36-2.79,2.36-1.72,0-2.41-.51-2.41-1.76v-.34c-1.37,1.46-3.33,2.24-5.33,2.1-4,0-6.36-2.15-6.36-5.58,0-3.87,3.1-6.06,11.35-6.79v-.3c0-1.66-.73-2.6-2.97-2.6Zm-2.53,9.15c0,1,.64,1.76,2.27,1.76,1.18,0,2.33-.43,3.23-1.2v-3.48c-3.7,.47-5.5,1.23-5.5,2.92h0Z"/><path class="cls-4" d="M549.97,197.45c.02,.7-.37,1.35-1,1.67-1.32,.68-2.78,1.02-4.26,1-3.09,0-4.94-1.25-5.88-3-.78-1.68-1.13-3.52-1-5.37v-6.46h-1.5c-1.55,0-2.32-.78-2.32-2.41s.77-2.4,2.32-2.4h1.5v-3.79c0-1.54,1-2.32,2.88-2.32s2.88,.78,2.88,2.32v3.79h3.61c1.55,0,2.32,.77,2.32,2.4s-.77,2.41-2.32,2.41h-3.61v6.44c-.07,.89,.07,1.79,.39,2.62,.3,.59,.93,.93,1.59,.86,.45-.02,.89-.09,1.33-.21,.32-.1,.66-.16,1-.17,1.61,0,2.07,1.67,2.07,2.62Z"/></g></svg>